<svg xmlns="http://www.w3.org/2000/svg" viewBox="0 0 1000 300">
  <g fill="#FFFFFF">
    <path d="M90 20 L170 100 L170 230 Q170 240 160 240 L20 240 Q10 240 10 230 L10 100 Z" />
    <path d="M40 160 Q90 220 140 160" fill="none" stroke="#000000" stroke-width="12" stroke-linecap="round" />
    
    <path d="M230 80 L285 80 Q315 80 315 110 Q315 140 285 140 L255 140 L255 210 L230 210 Z M255 102 L255 118 L280 118 Q292 118 292 110 Q292 102 280 102 Z" />
    <path d="M335 125 L360 125 L360 140 Q375 120 395 125 L395 150 Q375 145 360 165 L360 210 L335 210 Z" />
    <path d="M415 125 L440 125 L440 210 L415 210 Z M415 90 L440 90 L440 110 L415 110 Z" />
    <path d="M460 125 L485 125 L485 145 Q500 120 520 135 Q540 120 560 135 L560 210 L535 210 L535 155 Q535 145 520 145 Q505 145 505 155 L505 210 L485 210 L485 155 Q485 145 470 145 Q460 145 460 155 Z" />
    <path d="M580 165 L645 165 Q645 120 615 120 Q580 120 580 165 M580 175 Q580 215 615 215 Q640 215 650 195 L630 185 Q625 195 615 195 Q600 195 600 175 Z" />
    <path d="M680 200 Q680 215 710 215 Q740 215 740 195 Q740 180 710 175 Q670 170 670 140 Q670 120 710 120 Q745 120 750 145 L725 150 Q720 140 710 140 Q695 140 695 150 Q695 160 725 165 Q765 170 765 200 Q765 235 710 235 Q670 235 655 205 Z" />
    <path d="M780 100 L805 100 L805 125 L825 125 L825 145 L805 145 L805 190 Q805 210 820 210 L830 210 L830 230 Q810 230 790 220 Q780 210 780 190 L780 145 L770 145 L770 125 L780 125 Z" />
    <path d="M890 210 L890 195 Q875 215 850 215 Q830 215 830 190 Q830 165 860 165 L890 165 L890 155 Q890 140 870 140 Q850 140 845 155 L820 150 Q830 120 875 120 Q915 120 915 155 L915 210 Z M890 180 L890 175 L865 175 Q855 175 855 185 Q855 195 865 195 Q880 195 890 185 Z" />
    <path d="M925 125 L950 125 L965 175 L980 125 L1005 125 L975 220 Q965 250 940 250 L925 250 L925 230 L935 230 Q950 230 955 215 Z" />
  </g>
</svg>
